# xmcd
#
# Track frame offsets:
#	150
#	15303
#	29457
#	44096
#	61567
#	76156
#	85887
#	103598
#	120209
#	142819
#	161699
#	175168
#	189383
#	204314
#	223078
#	237400
#	248645
#	262366
#
# Disc length: 3684 seconds
#
# Revision: 0
# Processed by: cddbd v1.5.2PL0 Copyright (c) Steve Scherf et al.
# Submitted via: EasyCDDAExtractor 16.0.6.1
#
DISCID=ea0e6212
DTITLE=Γλυκερία - Εκατόν σαράντα μεγ. επιτυχίες-Γλυκερία 3
DYEAR=2010
DGENRE=Ποικίλη
TTITLE0=Γλυκερία-Ζιώγαλας Νίκος - Πάρε με απόψε, πάρε με [Νίκος Ζιώγαλας]
TTITLE1=Γλυκερία - Ό,τι και να γίνει, θυμήσου [Στέλ. Φωτιάδης-Πάνος Φαλάρας]
TTITLE2=Γλυκερία - Έρωτας είναι η αιτία [Στέλ. Φωτιάδης-Χρ. Προμοίρας]
TTITLE3=Γλυκερία - Μάγεψες την νύχτα [Στέλ. Φωτιάδης-Πάνος Φαλάρας]
TTITLE4=Γλυκερία - Έκπληκτα μάτια [Χρ. Νικολόπουλος-Λ. Παπαδόπουλος]
TTITLE5=Γλυκερία - Χρόνια χελιδόνια [Χρ. Νικολόπουλος-Λ. Παπαδόπουλος]
TTITLE6=Γλυκερία - Τα ξένα χέρια [Βασ. Τσιτσάνης]
TTITLE7=Γλυκερία - Να πάμε για τη Βούλα [Βασ. Τσιτσάνης]
TTITLE8=Γλυκερία - Τζιβαέρι [παραδ., διασκ. Στέλ. Φωτιάδης]
TTITLE9=Γλυκερία - Μέρα Μαγιού μού μίσεψες [Μ. Θεοδωράκης-Γ. Ρίτσος]
TTITLE10=Γλυκερία-χορωδία - Η μπαλάντα της ευτυχίας [Πέτρος Βαγιόπουλος-Μαν. Ρ
TTITLE10=ασούλης]
TTITLE11=Γλυκερία-Κίτρινα ποδήλατα - Πότε θα με μάθεις [Κίτρινα ποδήλατα]
TTITLE12=Γλυκερία - Μάτια μου [Θαν. Πολυκανδριώτης-Γ. Πάριος]
TTITLE13=Γλυκερία - Ερωτικό (Φθινόπωρο-Χειμώνας)[Ν. Μαυρουδής-Άρης Δαβαράκης]
TTITLE14=Γλυκερία - Η αγάπη δεν ανήκει [Κωστής Ζευγαδέλης-Σταμ. Μεσημέρης]
TTITLE15=Γλυκερία - Μανουσάκια [καλαματ. παραδ., διασκ. Στέλ. Φωτιάδης]
TTITLE16=Γλυκερία - Στης Πάργας τον ανήφορο [Αλέκος Κιτσάκης]
TTITLE17=Γλυκερία - Δω στα λιανοχορταρούδια [ζωναράδ. Θράκης, διασκ. Στέλ. Φωτ
TTITLE17=ιάδης]
EXTD=
EXTT0=
EXTT1=
EXTT2=
EXTT3=
EXTT4=
EXTT5=
EXTT6=
EXTT7=
EXTT8=
EXTT9=
EXTT10=
EXTT11=
EXTT12=
EXTT13=
EXTT14=
EXTT15=
EXTT16=
EXTT17=
PLAYORDER=
